PathFileType	4	(X/Y/Z)	Patient4_TMGait_0pt6_01_right_11.trc.trc
DataRate	CameraRate	NumFrames	NumMarkers	Units	OrigDataRate	OrigDataStartFrame	OrigNumFrames
84.848484848485	84.848484848485	7	33	mm	84.848484848485	71	       141
Frame#	Time	Sacral			L.Shoulder			Chest			R.Shoulder			Neck			R.ASIS			L.ASIS			R.Thigh.Superior			R.Thigh.Lateral			R.Thigh.Inferior			R.Patella			L.Thigh.Superior			L.Thigh.Lateral			L.Thigh.Inferior			L.Patella			L.Shank.Superior			L.Shank.Lateral			L.Shank.Inferior			R.Shank.Superior			R.Shank.Lateral			R.Shank.Inferior			R.Heel			R.Midfoot.Superior			R.Midfoot.Lateral			R.Toe			L.Heel			L.Midfoot.Lateral			L.Midfoot.Superior			L.Toe			L.Elbow			L.Wrist			R.Elbow			R.Wrist			
		X1	Y1	Z1	X2	Y2	Z2	X3	Y3	Z3	X4	Y4	Z4	X5	Y5	Z5	X6	Y6	Z6	X7	Y7	Z7	X8	Y8	Z8	X9	Y9	Z9	X10	Y10	Z10	X11	Y11	Z11	X12	Y12	Z12	X13	Y13	Z13	X14	Y14	Z14	X15	Y15	Z15	X16	Y16	Z16	X17	Y17	Z17	X18	Y18	Z18	X19	Y19	Z19	X20	Y20	Z20	X21	Y21	Z21	X22	Y22	Z22	X23	Y23	Z23	X24	Y24	Z24	X25	Y25	Z25	X26	Y26	Z26	X27	Y27	Z27	X28	Y28	Z28	X29	Y29	Z29	X30	Y30	Z30	X31	Y31	Z31	X32	Y32	Z32	X33	Y33	Z33	

71	13.605000000000	660.306475791374	997.634931774674	515.956849765123	791.728308025311	1431.024290673366	320.813035033506	919.540718718221	1363.268547251856	463.262048942868	860.438804840985	1431.139144054208	648.133562025876	794.279329924738	1487.217929543972	476.821506818162	896.721098227997	932.498012843935	603.933402656783	853.294241829821	956.743947274599	331.621679614626	892.943397092697	718.702184723408	573.325163246978	792.545879932223	623.910118177313	639.590050168792	846.444651619884	559.694140540445	554.462336361524	825.682158317233	473.601447315646	557.751900300916	932.701697224409	771.059936325781	365.134980097196	879.186182273548	639.421668157092	296.533870090466	980.956639186597	580.932359355994	359.116563019413	1006.763682711554	517.086508737608	358.812902876966	993.745514774233	444.960571708720	350.846208769715	932.981837215170	310.558335305402	306.399502481633	1024.967439726122	217.971147513794	364.262879704309	785.830791202321	389.732188141977	565.763868489412	703.131862736453	296.765429274714	630.861503117554	724.316080145572	198.590028842914	563.418816433391	569.517195585583	43.167455425654	534.717748857615	741.643840845610	95.468258075318	569.335326204264	652.673457157561	36.033059921318	608.560327885066	861.115176495456	41.671451310347	598.126824390056	948.564984086873	40.570330334471	414.088631805332	1019.219879360935	42.303499486343	330.986968197283	1090.789714032561	119.243553766901	345.871053176197	1222.946489886991	88.874389512161	316.006381884338	682.961492778365	1092.285185021824	219.319523243520	655.267406911386	835.020924450733	232.620585946764	1002.648789044487	1116.558725503335	760.574785171167	1255.449323480858	1114.076723045602	719.020371389818	
72	13.616785714286	662.052745732138	996.322649894887	514.219347142807	792.717155576951	1429.755906064870	319.395297958182	920.593393498194	1362.283630057563	461.915265028479	861.123734401430	1429.880928195555	646.806549989329	795.064485128723	1485.908356068505	475.412206274266	898.325683896172	931.107417075091	602.816085351627	855.473606397132	955.336824164933	330.381454829507	893.530516058276	717.079837525531	572.753046286897	792.134257529493	622.786952931974	638.538177868262	846.230330740068	558.004917010677	553.864575471497	824.665512065231	471.424390642062	556.999165219724	934.695377276985	769.231647931422	363.662337598334	879.199256093331	637.160056454892	296.575110696440	981.464083031749	578.859451183476	358.304808687212	1005.921712462992	514.190222188728	359.035527475109	992.512931967031	441.824058267696	351.266942021854	930.011747141934	308.085825966739	307.329716071955	1020.778963670582	214.574553199464	365.405897841160	783.462245851268	388.233430555313	565.044669345888	699.344045671617	296.605945931644	630.457730140506	718.959019851784	197.992409553281	563.159803938469	562.465829892885	43.593838144328	534.812677358318	734.739533263903	95.470588344390	569.391431778833	645.638852431551	36.164093075182	608.591376702237	854.104659698550	41.168714886345	598.265047385575	941.585604189383	39.667480051387	415.904126842607	1011.431155187667	40.345207461711	331.998658562351	1085.319093239833	114.707439329380	347.181162371493	1216.400703963103	80.753899380070	315.615690960092	681.692266285954	1091.871711738473	218.604929790255	653.379137901237	834.632729001697	232.046963014691	1002.247228257296	1114.460808449687	758.909104516413	1254.685943245647	1116.201725977952	717.155573605853	
73	13.628571428571	663.830846198787	995.030800555258	512.284315815249	793.830956022792	1428.458456790271	317.824005587180	921.716584831909	1361.346663979814	460.508875083155	861.764837397355	1428.655596160488	645.393225660609	795.910203155732	1484.645353593178	473.842211455595	899.936790398806	929.719077251157	601.652842503300	857.814201896599	954.026908660576	329.151328688724	894.354116354074	715.504312677378	572.159165955180	792.000441620577	621.660838462446	637.364594454927	846.425138336579	556.330487006850	553.199828514285	824.120819205772	469.133374886348	556.209455612631	936.875658777828	767.450092659646	362.337370105168	879.715321892720	635.171268949562	296.435289448494	982.295228540675	576.989017117924	357.663230304769	1005.332812750471	511.437097115253	359.375750509676	991.513427664081	438.813524045560	351.689782770371	927.284016816355	305.857973505472	307.929627306768	1016.454844998949	211.266946704516	366.471579472258	781.406650862184	386.713848104516	564.276679589363	695.754804018454	296.548148344769	629.975874214318	713.756180606439	197.481856507430	562.895798278624	555.437192235399	44.276218311542	534.928917029015	727.931097400030	95.533617454960	569.475368020574	638.636100751642	36.409801475583	608.633439052869	847.118211668980	40.658857485727	598.413194674487	934.021542569686	38.908765346237	417.274583320476	1003.248994224904	38.655500836162	332.736301803595	1079.440398096490	110.356326476170	348.533974962860	1209.469645166777	72.788013921100	315.534674066504	681.144707355196	1091.170483427983	217.754369942541	652.693484710360	833.898394969578	231.256578828308	1001.296704943383	1112.053445501610	757.197815287557	1253.410682840733	1117.104242855006	715.419913498307	
74	13.640357142857	665.600964742279	993.829287848431	510.179513368446	795.071812072236	1427.198496222084	316.117681755905	922.913529585811	1360.509114375623	459.054925092587	862.387165748347	1427.530796169652	643.905499733999	796.834223051816	1483.498115092379	472.128776771535	901.533020796809	928.392141903884	600.410396518993	860.238395885908	952.897745570735	327.914444682810	895.417975669564	714.046197928401	571.477954774868	792.206236474853	620.577789691816	636.054893458813	847.081482278374	554.729864535289	552.443677290609	824.133535318037	466.772585583590	555.402807397788	939.173934465864	765.813076608165	361.166492629455	880.734332345576	633.565197532413	296.063338660253	983.424336902854	575.413780318675	357.158761337823	1005.029578210128	508.972888243806	359.735683749331	990.791692709927	436.079157219064	352.031916539160	924.923227092940	303.981343955745	308.177736827493	1012.192271189462	208.230459034700	367.401964285653	779.729615439877	385.220277836369	563.481654709019	692.413783058181	296.668172970635	629.428422016200	708.760729049216	197.124731123634	562.657166400625	548.454526621478	45.333100555420	535.082082281832	721.267863305424	95.674250461464	569.611989837038	631.679809330644	36.820423077039	608.696046391778	840.164279617729	40.147629986459	598.564017881496	926.251673208883	38.330635459081	418.237828045337	995.040853503102	37.312175420673	333.228365181135	1073.378928486585	106.454661258392	349.845525912908	1202.429151449247	65.475587015525	315.694322457282	681.383498173290	1090.210905526035	216.759148665143	653.229585506578	832.851661459976	230.234927080539	999.780711771702	1109.400837788011	755.440783593975	1251.649306606247	1116.750146335897	713.803639537294	
75	13.652142857143	667.324396735628	992.797568301537	507.934996891102	796.434414875905	1426.058110906204	314.302821445925	924.184316199811	1359.827715834953	457.563676508980	863.023808956263	1426.582599739284	642.355980658134	797.848562916122	1482.540487020483	470.299263382948	903.092045423592	927.196924182176	599.052376262726	862.665399402056	952.034385089281	326.637383184769	896.714686578684	712.783963309632	570.641332277751	792.812212100378	619.590860756996	634.606440518551	848.254440654370	553.269097438562	551.584624217032	824.796153837614	464.397773245950	554.622162171717	941.526011800432	764.438433834161	360.130493653312	882.229910753133	632.432338475957	295.430126289842	984.810403520722	574.216329948535	356.739777635061	1005.024880890843	506.917804761502	360.016902823397	990.353964992698	433.736034939804	352.224075009793	922.967273510736	302.541960563444	308.080391016404	1008.089278056008	205.601269066536	368.151283252864	778.509106856693	383.805672519791	562.700839258733	689.381841009435	297.051385611788	628.840900750928	704.039519536881	196.995441186208	562.486539336074	541.553074828126	46.900226260590	535.291157838437	714.807877306802	95.909455262374	569.831890725748	624.789009027234	37.454532750347	608.790010275138	833.248609744453	39.645213165539	598.707761394108	918.533560558516	37.943605943759	418.847532387018	987.042523764759	36.343798064666	333.510500604344	1067.257522206564	103.193675073776	351.032709402341	1195.446636734837	59.196028921877	316.006192502496	682.460274836458	1089.048060724182	215.616053543967	655.005045494085	831.552915406547	228.968871990690	997.681926812992	1106.586708808248	753.637296606051	1249.411423122848	1115.105415400435	712.292770819230	
76	13.663928571429	668.969098162978	992.015112316904	505.578718173994	797.906188787339	1425.127013442113	312.411497344149	925.524690385861	1359.358199495661	456.042725542733	863.710714972669	1425.886496988680	640.756483494295	798.956570653471	1481.842030886601	468.388680167111	904.591888624009	926.208399825450	597.544538814716	865.022895571570	951.511118353030	325.273925507794	898.229308381993	711.795516331138	569.592378879052	793.873778250776	618.753563604243	633.032658297406	850.000856267787	552.013897454757	550.630591104814	826.202847448919	462.071022518432	553.934732431718	943.872282680292	763.438416857119	359.185574996341	884.137167426032	631.825577878437	294.530847701180	986.382463973306	573.444234266863	356.341529623687	1005.287057719331	505.340648571619	360.136831724025	990.151778380993	431.847151201263	352.221292683340	921.361055267626	301.585259878812	307.673597140058	1004.147749693616	203.455810571316	368.693875685957	777.833396534148	382.523675891668	561.994468958628	686.731446212051	297.784353132077	628.251286106582	699.672072257695	197.170101683293	562.435885628329	534.782024373241	49.123562247273	535.578026244556	708.615450073811	96.255340296163	570.169103491221	617.988003809220	38.378366453182	608.926920973898	826.373073754661	39.164272926543	598.833190856141	911.005178668548	37.733872792919	419.166070552865	979.363928054177	35.732684082717	333.622311576802	1061.114680684945	100.671243655043	352.029092118568	1188.592696437553	54.166052482204	316.380921479109	684.404653454826	1087.760825886264	214.326281523737	658.034619564323	830.086097798644	227.448181743659	994.985072218575	1103.710019924746	751.786980250756	1246.689655124087	1112.139253279513	710.870678764276	
77	13.675714285714	670.514095839141	991.549984335147	503.132024845304	799.468805630001	1424.491549442201	310.477548775436	926.925240400397	1359.148180835152	454.496939438499	864.479013026905	1425.506573908874	639.116791202139	800.151379704428	1481.458603188578	466.434928409419	906.012883768741	925.497241437704	595.860182921487	867.257778671914	951.379583343883	323.772926654748	899.945993657724	711.148393939986	568.298538553122	795.437828406381	618.112168305469	631.364666283829	852.377427788248	551.021027143641	549.612283192514	828.441644349912	459.854242039174	553.427490230566	946.156715183318	762.890884771293	358.266871786055	886.338595146016	631.744681218335	293.384453170268	988.027455446448	573.088978433080	355.892350718639	1005.723570401303	504.243319946173	360.039754583600	990.075747882854	430.416620511987	352.008367198754	919.968268764740	301.102778738678	307.020957062276	1000.296497877080	201.808480694299	369.029464127076	777.796538099276	381.422772747498	561.436529773181	684.545758828247	298.945741419203	627.706912339760	695.747240108574	197.719517775530	562.561284654174	528.205383784331	52.150685956934	535.967055795903	702.757047588771	96.726565030786	570.657246048129	611.307183752250	39.665299338947	609.119163819485	819.535088915683	38.716406891710	598.929052775201	903.708367544271	37.669755515817	419.259574218964	972.016099274541	35.426389321055	333.605120529121	1054.936630077267	98.890836421709	352.797026028563	1181.868308732774	50.430194399081	316.743263223920	687.215649146871	1086.445733719727	212.893139210536	662.327669091216	828.551969508660	225.666599162704	991.680795866458	1100.877710035706	749.890677252637	1243.460072018098	1107.828334529729	709.520472264921	
